<svg width="44" height="44" viewBox="0 0 44 44" fill="none" xmlns="http://www.w3.org/2000/svg">
<circle cx="22" cy="22" r="22" fill="#65A69A"/>
<path d="M21.9999 16.1823C24.9744 16.1823 27.4286 18.3146 27.9128 21.092H16.0869C16.5703 18.3076 19.0239 16.1823 21.9999 16.1823Z" fill="white" stroke="white" stroke-width="2"/>
<mask id="path-3-inside-1_203_1342" fill="white">
<path d="M32 22.8323H31.92C31.37 22.8323 30.92 22.3881 30.92 21.8452C30.92 21.3023 31.37 20.8581 31.92 20.8581C32.47 20.8581 32.96 21.3023 32.96 21.8452C32.96 22.3881 32.55 22.8323 32 22.8323ZM12.08 22.8323H12C11.45 22.8323 11 22.3881 11 21.8452C11 21.3023 11.45 20.8581 12 20.8581C12.55 20.8581 13.04 21.3023 13.04 21.8452C13.04 22.3881 12.63 22.8323 12.08 22.8323ZM29.01 15.9127C28.75 15.9127 28.5 15.814 28.3 15.6265C27.91 15.2415 27.91 14.6196 28.3 14.2346L28.43 14.1063C28.82 13.7214 29.45 13.7214 29.84 14.1063C30.23 14.4913 30.23 15.1132 29.84 15.4982L29.71 15.6265C29.52 15.814 29.27 15.9127 29.01 15.9127ZM14.99 15.9127C14.73 15.9127 14.48 15.814 14.28 15.6265L14.15 15.4982C13.76 15.1132 13.76 14.4913 14.15 14.1063C14.54 13.7214 15.17 13.7214 15.56 14.1063L15.69 14.2346C16.08 14.6196 16.08 15.2415 15.69 15.6265C15.5 15.814 15.24 15.9127 14.99 15.9127ZM22 13.0008C21.45 13.0008 21 12.5961 21 12.0532V11.9742C21 11.4313 21.45 10.9871 22 10.9871C22.55 10.9871 23 11.4313 23 11.9742C23 12.5171 22.55 13.0008 22 13.0008Z"/>
</mask>
<path d="M32 22.8323H31.92C31.37 22.8323 30.92 22.3881 30.92 21.8452C30.92 21.3023 31.37 20.8581 31.92 20.8581C32.47 20.8581 32.96 21.3023 32.96 21.8452C32.96 22.3881 32.55 22.8323 32 22.8323ZM12.08 22.8323H12C11.45 22.8323 11 22.3881 11 21.8452C11 21.3023 11.45 20.8581 12 20.8581C12.55 20.8581 13.04 21.3023 13.04 21.8452C13.04 22.3881 12.63 22.8323 12.08 22.8323ZM29.01 15.9127C28.75 15.9127 28.5 15.814 28.3 15.6265C27.91 15.2415 27.91 14.6196 28.3 14.2346L28.43 14.1063C28.82 13.7214 29.45 13.7214 29.84 14.1063C30.23 14.4913 30.23 15.1132 29.84 15.4982L29.71 15.6265C29.52 15.814 29.27 15.9127 29.01 15.9127ZM14.99 15.9127C14.73 15.9127 14.48 15.814 14.28 15.6265L14.15 15.4982C13.76 15.1132 13.76 14.4913 14.15 14.1063C14.54 13.7214 15.17 13.7214 15.56 14.1063L15.69 14.2346C16.08 14.6196 16.08 15.2415 15.69 15.6265C15.5 15.814 15.24 15.9127 14.99 15.9127ZM22 13.0008C21.45 13.0008 21 12.5961 21 12.0532V11.9742C21 11.4313 21.45 10.9871 22 10.9871C22.55 10.9871 23 11.4313 23 11.9742C23 12.5171 22.55 13.0008 22 13.0008Z" fill="white"/>
<path d="M28.3 15.6265L26.895 17.0498L26.9132 17.0678L26.9319 17.0854L28.3 15.6265ZM28.3 14.2346L26.8951 12.8112L26.895 12.8113L28.3 14.2346ZM28.43 14.1063L29.8349 15.5298L29.835 15.5297L28.43 14.1063ZM29.84 15.4982L31.2449 16.9216L31.245 16.9215L29.84 15.4982ZM29.71 15.6265L28.3051 14.203L28.305 14.2031L29.71 15.6265ZM14.28 15.6265L12.8751 17.0499L12.8933 17.0679L12.912 17.0854L14.28 15.6265ZM14.15 15.4982L12.745 16.9215L12.7451 16.9216L14.15 15.4982ZM15.56 14.1063L14.155 15.5297L14.1551 15.5298L15.56 14.1063ZM15.69 14.2346L17.095 12.8113L17.0949 12.8112L15.69 14.2346ZM32 20.8323H31.92V24.8323H32V20.8323ZM31.92 20.8323C32.45 20.8323 32.92 21.2591 32.92 21.8452H28.92C28.92 23.5171 30.29 24.8323 31.92 24.8323V20.8323ZM32.92 21.8452C32.92 22.4313 32.45 22.8581 31.92 22.8581V18.8581C30.29 18.8581 28.92 20.1733 28.92 21.8452H32.92ZM31.92 22.8581C31.6589 22.8581 31.4377 22.7562 31.28 22.6086C31.1184 22.4575 30.96 22.194 30.96 21.8452H34.96C34.96 20.0741 33.4467 18.8581 31.92 18.8581V22.8581ZM30.96 21.8452C30.96 21.3669 31.3639 20.8323 32 20.8323V24.8323C33.7361 24.8323 34.96 23.4093 34.96 21.8452H30.96ZM12.08 20.8323H12V24.8323H12.08V20.8323ZM12 20.8323C12.53 20.8323 13 21.2591 13 21.8452H9C9 23.5171 10.37 24.8323 12 24.8323V20.8323ZM13 21.8452C13 22.4313 12.53 22.8581 12 22.8581V18.8581C10.37 18.8581 9 20.1733 9 21.8452H13ZM12 22.8581C11.7389 22.8581 11.5177 22.7562 11.3599 22.6086C11.1983 22.4574 11.04 22.1939 11.04 21.8452H15.04C15.04 20.0742 13.5269 18.8581 12 18.8581V22.8581ZM11.04 21.8452C11.04 21.3671 11.4437 20.8323 12.08 20.8323V24.8323C13.8163 24.8323 15.04 23.4092 15.04 21.8452H11.04ZM29.01 13.9127C29.2717 13.9127 29.5073 14.0168 29.6681 14.1676L26.9319 17.0854C27.4927 17.6112 28.2283 17.9127 29.01 17.9127V13.9127ZM29.705 14.2031C30.1083 14.6012 30.1083 15.2599 29.705 15.658L26.895 12.8113C25.7117 13.9793 25.7117 15.8818 26.895 17.0498L29.705 14.2031ZM29.7049 15.6581L29.8349 15.5298L27.0251 12.6829L26.8951 12.8112L29.7049 15.6581ZM29.835 15.5297C29.4461 15.9136 28.8239 15.9136 28.435 15.5297L31.245 12.683C30.0761 11.5292 28.1939 11.5292 27.025 12.683L29.835 15.5297ZM28.435 15.5297C28.0317 15.1316 28.0317 14.4729 28.435 14.0748L31.245 16.9215C32.4284 15.7534 32.4284 13.851 31.245 12.683L28.435 15.5297ZM28.4351 14.0747L28.3051 14.203L31.1149 17.0499L31.2449 16.9216L28.4351 14.0747ZM28.305 14.2031C28.4984 14.0122 28.7569 13.9127 29.01 13.9127V17.9127C29.7831 17.9127 30.5417 17.6158 31.115 17.0498L28.305 14.2031ZM14.99 13.9127C15.2518 13.9127 15.4874 14.0169 15.6481 14.1676L12.912 17.0854C13.4726 17.6111 14.2082 17.9127 14.99 17.9127V13.9127ZM15.6849 14.203L15.5549 14.0747L12.7451 16.9216L12.8751 17.0499L15.6849 14.203ZM15.555 14.0748C15.9584 14.4729 15.9584 15.1316 15.555 15.5297L12.745 12.683C11.5617 13.851 11.5617 15.7534 12.745 16.9215L15.555 14.0748ZM15.555 15.5297C15.1661 15.9136 14.5439 15.9136 14.155 15.5297L16.965 12.683C15.7961 11.5292 13.9139 11.5292 12.745 12.683L15.555 15.5297ZM14.1551 15.5298L14.2851 15.6581L17.0949 12.8112L16.9649 12.6829L14.1551 15.5298ZM14.285 15.658C13.8817 15.2599 13.8817 14.6012 14.285 14.2031L17.095 17.0498C18.2783 15.8818 18.2783 13.9793 17.095 12.8113L14.285 15.658ZM14.285 14.2031C14.4857 14.005 14.7375 13.9127 14.99 13.9127V17.9127C15.7424 17.9127 16.5143 17.623 17.095 17.0498L14.285 14.2031ZM22 11.0008C22.4209 11.0008 23 11.3624 23 12.0532H19C19 13.8297 20.4791 15.0008 22 15.0008V11.0008ZM23 12.0532V11.9742H19V12.0532H23ZM23 11.9742C23 12.5603 22.53 12.9871 22 12.9871V8.98709C20.37 8.98709 19 10.3023 19 11.9742H23ZM22 12.9871C21.47 12.9871 21 12.5603 21 11.9742H25C25 10.3023 23.63 8.98709 22 8.98709V12.9871ZM21 11.9742C21 11.6931 21.1131 11.4626 21.2636 11.3059C21.4178 11.1452 21.6732 11.0008 22 11.0008V15.0008C23.7305 15.0008 25 13.5441 25 11.9742H21Z" fill="white" mask="url(#path-3-inside-1_203_1342)"/>
<path opacity="0.4" d="M30 25.5468H14C13.59 25.5468 13.25 25.2112 13.25 24.8065C13.25 24.4018 13.59 24.0662 14 24.0662H30C30.41 24.0662 30.75 24.4018 30.75 24.8065C30.75 25.2112 30.41 25.5468 30 25.5468Z" fill="white"/>
<path opacity="0.4" d="M28 28.5081H16C15.59 28.5081 15.25 28.1725 15.25 27.7678C15.25 27.3631 15.59 27.0275 16 27.0275H28C28.41 27.0275 28.75 27.3631 28.75 27.7678C28.75 28.1725 28.41 28.5081 28 28.5081Z" fill="white"/>
<path opacity="0.4" d="M25 31.4695H19C18.59 31.4695 18.25 31.1338 18.25 30.7291C18.25 30.3244 18.59 29.9888 19 29.9888H25C25.41 29.9888 25.75 30.3244 25.75 30.7291C25.75 31.1338 25.41 31.4695 25 31.4695Z" fill="white"/>
</svg>
