<svg width="44" height="44" viewBox="0 0 44 44" fill="none" xmlns="http://www.w3.org/2000/svg">
<circle cx="22" cy="22" r="22" fill="#5D5FEF"/>
<g opacity="0.4">
<path d="M32.1988 23.325C32.1983 23.3247 32.1977 23.3243 32.1971 23.324L32.1988 23.325Z" fill="white" stroke="white" stroke-width="2"/>
</g>
<mask id="path-3-inside-1_203_1351" fill="white">
<path d="M17.0962 16.8546C16.0825 16.8546 15.0687 16.5844 14.1665 16.0541L11.6321 14.5531C11.2672 14.3429 11.1557 13.8826 11.3685 13.5224C11.5814 13.1621 12.0478 13.0521 12.4127 13.2622L14.9471 14.7632C16.265 15.5437 17.9072 15.5437 19.2352 14.7632C21.0397 13.6925 23.2801 13.6925 25.0846 14.7632C26.4025 15.5437 28.0447 15.5437 29.3727 14.7632L31.9071 13.2622C32.2721 13.0521 32.7384 13.1621 32.9513 13.5224C33.1642 13.8726 33.0527 14.3429 32.6877 14.5531L30.1533 16.0541C28.3489 17.1248 26.1085 17.1248 24.304 16.0541C22.9861 15.2736 21.3438 15.2736 20.0158 16.0541C19.1237 16.5844 18.11 16.8546 17.0962 16.8546Z"/>
</mask>
<path d="M17.0962 16.8546C16.0825 16.8546 15.0687 16.5844 14.1665 16.0541L11.6321 14.5531C11.2672 14.3429 11.1557 13.8826 11.3685 13.5224C11.5814 13.1621 12.0478 13.0521 12.4127 13.2622L14.9471 14.7632C16.265 15.5437 17.9072 15.5437 19.2352 14.7632C21.0397 13.6925 23.2801 13.6925 25.0846 14.7632C26.4025 15.5437 28.0447 15.5437 29.3727 14.7632L31.9071 13.2622C32.2721 13.0521 32.7384 13.1621 32.9513 13.5224C33.1642 13.8726 33.0527 14.3429 32.6877 14.5531L30.1533 16.0541C28.3489 17.1248 26.1085 17.1248 24.304 16.0541C22.9861 15.2736 21.3438 15.2736 20.0158 16.0541C19.1237 16.5844 18.11 16.8546 17.0962 16.8546Z" fill="white"/>
<path d="M14.1665 16.0541L13.1473 17.7749L13.153 17.7783L14.1665 16.0541ZM11.6321 14.5531L12.6513 12.8322L12.6407 12.826L12.6301 12.8199L11.6321 14.5531ZM12.4127 13.2622L13.4319 11.5414L13.4213 11.5351L13.4107 11.529L12.4127 13.2622ZM14.9471 14.7632L13.9279 16.4841L14.9471 14.7632ZM19.2352 14.7632L20.2487 16.4875L20.2558 16.4832L19.2352 14.7632ZM25.0846 14.7632L24.064 16.4832L24.0654 16.4841L25.0846 14.7632ZM29.3727 14.7632L30.3862 16.4875L30.3919 16.4841L29.3727 14.7632ZM31.9071 13.2622L30.9091 11.529L30.8985 11.5351L30.8879 11.5414L31.9071 13.2622ZM32.9513 13.5224L31.2295 14.5399L31.2358 14.5506L31.2422 14.5612L32.9513 13.5224ZM32.6877 14.5531L31.6897 12.8199L31.6791 12.826L31.6685 12.8322L32.6877 14.5531ZM30.1533 16.0541L29.1341 14.3333L29.1327 14.3341L30.1533 16.0541ZM24.304 16.0541L25.3246 14.3341L25.3232 14.3333L24.304 16.0541ZM20.0158 16.0541L19.0024 14.3298L18.9938 14.3349L20.0158 16.0541ZM17.0962 14.8546C16.4372 14.8546 15.7736 14.6788 15.18 14.3299L13.153 17.7783C14.3638 18.49 15.7277 18.8546 17.0962 18.8546V14.8546ZM15.1857 14.3333L12.6513 12.8322L10.6129 16.2739L13.1473 17.7749L15.1857 14.3333ZM12.6301 12.8199C13.2655 13.1857 13.4229 13.9772 13.0904 14.5399L9.64672 12.5049C8.88843 13.788 9.26882 15.5001 10.6341 16.2863L12.6301 12.8199ZM13.0904 14.5399C12.7138 15.1772 11.9439 15.3001 11.4147 14.9954L13.4107 11.529C12.1516 10.804 10.4491 11.1471 9.64672 12.5049L13.0904 14.5399ZM11.3935 14.983L13.9279 16.4841L15.9663 13.0424L13.4319 11.5414L11.3935 14.983ZM13.9279 16.4841C15.8766 17.6382 18.2975 17.6342 20.2486 16.4875L18.2218 13.039C17.517 13.4532 16.6533 13.4493 15.9663 13.0424L13.9279 16.4841ZM20.2558 16.4832C21.4311 15.7858 22.8887 15.7858 24.064 16.4832L26.1052 13.0432C23.6715 11.5992 20.6483 11.5992 18.2146 13.0432L20.2558 16.4832ZM24.0654 16.4841C26.0141 17.6382 28.435 17.6342 30.3862 16.4875L28.3593 13.039C27.6545 13.4532 26.7908 13.4493 26.1038 13.0424L24.0654 16.4841ZM30.3919 16.4841L32.9263 14.983L30.8879 11.5414L28.3536 13.0424L30.3919 16.4841ZM32.9051 14.9954C32.376 15.3001 31.6061 15.1772 31.2295 14.5399L34.6731 12.5049C33.8707 11.1471 32.1682 10.804 30.9091 11.529L32.9051 14.9954ZM31.2422 14.5612C30.8841 13.972 31.0608 13.182 31.6897 12.8199L33.6857 16.2863C35.0445 15.5039 35.4442 13.7732 34.6603 12.4836L31.2422 14.5612ZM31.6685 12.8322L29.1341 14.3333L31.1725 17.7749L33.7069 16.2739L31.6685 12.8322ZM29.1327 14.3341C27.9574 15.0315 26.4999 15.0315 25.3246 14.3341L23.2834 17.7741C25.7171 19.2181 28.7403 19.2181 31.1739 17.7741L29.1327 14.3341ZM25.3232 14.3333C23.3744 13.1791 20.9536 13.1831 19.0024 14.3298L21.0292 17.7783C21.7341 17.3641 22.5978 17.368 23.2848 17.7749L25.3232 14.3333ZM18.9938 14.3349C18.4166 14.6781 17.7569 14.8546 17.0962 14.8546V18.8546C18.463 18.8546 19.8308 18.4908 21.0379 17.7732L18.9938 14.3349Z" fill="white" mask="url(#path-3-inside-1_203_1351)"/>
<path d="M32.3025 30.8641C32.1707 30.8641 32.0389 30.834 31.9173 30.754L29.3829 29.253C28.065 28.4724 26.4227 28.4724 25.0947 29.253C23.2902 30.3237 21.0498 30.3237 19.2454 29.253C17.9275 28.4724 16.2852 28.4724 14.9572 29.253L12.4228 30.754C12.0579 30.9641 11.5916 30.854 11.3787 30.4938C11.1658 30.1436 11.2773 29.6733 11.6422 29.4631L14.1766 27.9621C15.9811 26.8914 18.2215 26.8914 20.026 27.9621C21.3438 28.7426 22.9861 28.7426 24.3141 27.9621C26.1186 26.8914 28.359 26.8914 30.1635 27.9621L32.6978 29.4631C33.0628 29.6733 33.1743 30.1336 32.9614 30.4938C32.8094 30.734 32.5559 30.8641 32.3025 30.8641Z" fill="white"/>
</svg>
