<svg width="63" height="59" viewBox="0 0 63 59" fill="none" xmlns="http://www.w3.org/2000/svg">
<rect opacity="0.13" y="9" width="50.9524" height="50" rx="25" fill="#F48F55"/>
<ellipse cx="48.9144" cy="13" rx="13.2477" ry="13" fill="#65A69A"/>
<path d="M48.1003 10.69H44.7503V12.68C44.8903 12.4933 45.097 12.3367 45.3703 12.21C45.6503 12.0833 45.947 12.02 46.2603 12.02C46.8203 12.02 47.2736 12.14 47.6203 12.38C47.9736 12.62 48.2236 12.9233 48.3703 13.29C48.5236 13.6567 48.6003 14.0433 48.6003 14.45C48.6003 14.9433 48.5036 15.3833 48.3103 15.77C48.1236 16.15 47.8403 16.45 47.4603 16.67C47.087 16.89 46.627 17 46.0803 17C45.3536 17 44.7703 16.82 44.3303 16.46C43.8903 16.1 43.627 15.6233 43.5403 15.03H44.6503C44.7236 15.3433 44.887 15.5933 45.1403 15.78C45.3936 15.96 45.7103 16.05 46.0903 16.05C46.5636 16.05 46.917 15.9067 47.1503 15.62C47.3903 15.3333 47.5103 14.9533 47.5103 14.48C47.5103 14 47.3903 13.6333 47.1503 13.38C46.9103 13.12 46.557 12.99 46.0903 12.99C45.7636 12.99 45.487 13.0733 45.2603 13.24C45.0403 13.4 44.8803 13.62 44.7803 13.9H43.7003V9.69H48.1003V10.69ZM50.417 15.45C51.057 14.8967 51.5603 14.4433 51.927 14.09C52.3003 13.73 52.6103 13.3567 52.857 12.97C53.1037 12.5833 53.227 12.1967 53.227 11.81C53.227 11.41 53.1303 11.0967 52.937 10.87C52.7503 10.6433 52.4537 10.53 52.047 10.53C51.6537 10.53 51.347 10.6567 51.127 10.91C50.9137 11.1567 50.8003 11.49 50.787 11.91H49.687C49.707 11.15 49.9337 10.57 50.367 10.17C50.807 9.76333 51.3637 9.56 52.037 9.56C52.7637 9.56 53.3303 9.76 53.737 10.16C54.1503 10.56 54.357 11.0933 54.357 11.76C54.357 12.24 54.2337 12.7033 53.987 13.15C53.747 13.59 53.457 13.9867 53.117 14.34C52.7837 14.6867 52.357 15.09 51.837 15.55L51.387 15.95H54.557V16.9H49.697V16.07L50.417 15.45Z" fill="white"/>
<path d="M33.3302 36.49L32.3302 34.83C32.1202 34.46 31.9302 33.76 31.9302 33.35V30.82C31.9302 27.56 29.2802 24.9 26.0102 24.9C22.7402 24.9 20.0902 27.56 20.0902 30.82V33.35C20.0902 33.76 19.9002 34.46 19.6902 34.82L18.6802 36.49C18.2802 37.16 18.1902 37.9 18.4402 38.58C18.6802 39.25 19.2502 39.77 19.9902 40.02C21.9302 40.68 23.9702 41 26.0102 41C28.0502 41 30.0902 40.68 32.0302 40.03C32.7302 39.8 33.2702 39.27 33.5302 38.58C33.7902 37.89 33.7202 37.13 33.3302 36.49Z" fill="#F48F55"/>
<path opacity="0.4" d="M28.2403 25.32C27.5503 25.05 26.8003 24.9 26.0103 24.9C25.2303 24.9 24.4803 25.04 23.7903 25.32C24.2203 24.51 25.0703 24 26.0103 24C26.9603 24 27.8003 24.51 28.2403 25.32Z" fill="#F48F55"/>
<path opacity="0.4" d="M28.8202 42.01C28.4002 43.17 27.2902 44 25.9902 44C25.2002 44 24.4202 43.68 23.8702 43.11C23.5502 42.81 23.3102 42.41 23.1702 42C23.3002 42.02 23.4302 42.03 23.5702 42.05C23.8002 42.08 24.0402 42.11 24.2802 42.13C24.8502 42.18 25.4302 42.21 26.0102 42.21C26.5802 42.21 27.1502 42.18 27.7102 42.13C27.9202 42.11 28.1302 42.1 28.3302 42.07C28.4902 42.05 28.6502 42.03 28.8202 42.01Z" fill="#F48F55"/>
</svg>
