<svg width="117" height="30" viewBox="0 0 117 30" fill="none" xmlns="http://www.w3.org/2000/svg">
<path d="M53.868 19.876H47.466L46.366 23H43.748L49.226 7.688H52.13L57.608 23H54.968L53.868 19.876ZM53.164 17.83L50.678 10.724L48.17 17.83H53.164ZM62.4978 12.638C62.8645 12.022 63.3485 11.5453 63.9498 11.208C64.5658 10.856 65.2918 10.68 66.1278 10.68V13.276H65.4898C64.5072 13.276 63.7592 13.5253 63.2458 14.024C62.7472 14.5227 62.4978 15.388 62.4978 16.62V23H59.9898V10.878H62.4978V12.638ZM70.9412 7.71V23H68.4332V7.71H70.9412ZM81.208 23.154C79.7853 23.154 78.4727 22.824 77.27 22.164C76.082 21.4893 75.136 20.558 74.432 19.37C73.7427 18.1673 73.398 16.818 73.398 15.322C73.398 13.826 73.7427 12.484 74.432 11.296C75.136 10.108 76.082 9.184 77.27 8.524C78.4727 7.84933 79.7853 7.512 81.208 7.512C82.6453 7.512 83.958 7.84933 85.146 8.524C86.3487 9.184 87.2947 10.108 87.984 11.296C88.6733 12.484 89.018 13.826 89.018 15.322C89.018 16.818 88.6733 18.1673 87.984 19.37C87.2947 20.558 86.3487 21.4893 85.146 22.164C83.958 22.824 82.6453 23.154 81.208 23.154ZM81.208 20.976C82.22 20.976 83.122 20.7487 83.914 20.294C84.706 19.8247 85.322 19.1647 85.762 18.314C86.2167 17.4487 86.444 16.4513 86.444 15.322C86.444 14.1927 86.2167 13.2027 85.762 12.352C85.322 11.5013 84.706 10.8487 83.914 10.394C83.122 9.93933 82.22 9.712 81.208 9.712C80.196 9.712 79.294 9.93933 78.502 10.394C77.71 10.8487 77.0867 11.5013 76.632 12.352C76.192 13.2027 75.972 14.1927 75.972 15.322C75.972 16.4513 76.192 17.4487 76.632 18.314C77.0867 19.1647 77.71 19.8247 78.502 20.294C79.294 20.7487 80.196 20.976 81.208 20.976ZM107.893 12.264C107.893 13.0413 107.709 13.7747 107.343 14.464C106.976 15.1533 106.389 15.718 105.583 16.158C104.776 16.5833 103.742 16.796 102.481 16.796H99.7088V23H97.2008V7.71H102.481C103.654 7.71 104.644 7.91533 105.451 8.326C106.272 8.722 106.881 9.26467 107.277 9.954C107.687 10.6433 107.893 11.4133 107.893 12.264ZM102.481 14.75C103.434 14.75 104.145 14.5373 104.615 14.112C105.084 13.672 105.319 13.056 105.319 12.264C105.319 10.592 104.373 9.756 102.481 9.756H99.7088V14.75H102.481ZM109.625 9.25V6.962H114.201V23H111.671V9.25H109.625Z" fill="#2E1507"/>
<path d="M8.64001 27L12.48 25.08V22.2" stroke="#2E1507" stroke-width="1.5" stroke-miterlimit="10" stroke-linecap="round" stroke-linejoin="round"/>
<path d="M16.32 27L12.48 25.08" stroke="#2E1507" stroke-width="1.5" stroke-miterlimit="10" stroke-linecap="round" stroke-linejoin="round"/>
<rect x="0.75" y="3.75" width="22.5" height="17.7" rx="1.25" stroke="#2E1507" stroke-width="1.5"/>
<path d="M11.904 15.48C13.8127 15.48 15.36 13.9327 15.36 12.024C15.36 10.1153 13.8127 8.56799 11.904 8.56799C9.9953 8.56799 8.448 10.1153 8.448 12.024C8.448 13.9327 9.9953 15.48 11.904 15.48Z" stroke="#2E1507" stroke-width="1.5" stroke-linecap="round" stroke-linejoin="round"/>
<path d="M14.9491 15.7449C15.1526 16.3593 15.6173 16.4207 15.9744 15.8831C16.3008 15.3916 16.0858 14.9884 15.4944 14.9884C15.0566 14.9846 14.8109 15.3263 14.9491 15.7449Z" stroke="#2E1507" stroke-width="1.5" stroke-linecap="round" stroke-linejoin="round"/>
</svg>
