<svg width="18" height="16" viewBox="0 0 18 16" fill="none" xmlns="http://www.w3.org/2000/svg">
<path d="M1.5 8.66001V7.34001C1.5 6.56001 2.1375 5.91501 2.925 5.91501C4.2825 5.91501 4.8375 4.95501 4.155 3.77751C3.765 3.10251 3.9975 2.22501 4.68 1.83501L5.9775 1.09251C6.57 0.740013 7.335 0.950013 7.6875 1.54251L7.77 1.68501C8.445 2.86251 9.555 2.86251 10.2375 1.68501L10.32 1.54251C10.6725 0.950013 11.4375 0.740013 12.03 1.09251L13.3275 1.83501C14.01 2.22501 14.2425 3.10251 13.8525 3.77751C13.17 4.95501 13.725 5.91501 15.0825 5.91501C15.8625 5.91501 16.5075 6.55251 16.5075 7.34001V8.66001C16.5075 9.44001 15.87 10.085 15.0825 10.085C13.725 10.085 13.17 11.045 13.8525 12.2225C14.2425 12.905 14.01 13.775 13.3275 14.165L12.03 14.9075C11.4375 15.26 10.6725 15.05 10.32 14.4575L10.2375 14.315C9.5625 13.1375 8.4525 13.1375 7.77 14.315L7.6875 14.4575C7.335 15.05 6.57 15.26 5.9775 14.9075L4.68 14.165C3.9975 13.775 3.765 12.8975 4.155 12.2225C4.8375 11.045 4.2825 10.085 2.925 10.085C2.1375 10.085 1.5 9.44001 1.5 8.66001Z" stroke="white" stroke-width="1.5" stroke-miterlimit="10" stroke-linecap="round" stroke-linejoin="round"/>
</svg>
