<svg width="44" height="44" viewBox="0 0 44 44" fill="none" xmlns="http://www.w3.org/2000/svg">
<circle cx="22" cy="22" r="22" fill="#F48F55"/>
<mask id="path-2-inside-1_203_1333" fill="white">
<path d="M28.4999 32.4565C26.1599 32.4565 24.2499 30.5712 24.2499 28.2613V27.7678C24.2499 27.3631 24.5899 27.0275 24.9999 27.0275C25.4099 27.0275 25.7499 27.3631 25.7499 27.7678V28.2613C25.7499 29.7617 26.9799 30.9759 28.4999 30.9759C30.0199 30.9759 31.2499 29.7617 31.2499 28.2613C31.2499 26.7609 30.0199 25.5468 28.4999 25.5468H11.9999C11.5899 25.5468 11.2499 25.2112 11.2499 24.8065C11.2499 24.4018 11.5899 24.0662 11.9999 24.0662H28.4999C30.8399 24.0662 32.7499 25.9515 32.7499 28.2613C32.7499 30.5712 30.8399 32.4565 28.4999 32.4565Z"/>
</mask>
<path d="M28.4999 32.4565C26.1599 32.4565 24.2499 30.5712 24.2499 28.2613V27.7678C24.2499 27.3631 24.5899 27.0275 24.9999 27.0275C25.4099 27.0275 25.7499 27.3631 25.7499 27.7678V28.2613C25.7499 29.7617 26.9799 30.9759 28.4999 30.9759C30.0199 30.9759 31.2499 29.7617 31.2499 28.2613C31.2499 26.7609 30.0199 25.5468 28.4999 25.5468H11.9999C11.5899 25.5468 11.2499 25.2112 11.2499 24.8065C11.2499 24.4018 11.5899 24.0662 11.9999 24.0662H28.4999C30.8399 24.0662 32.7499 25.9515 32.7499 28.2613C32.7499 30.5712 30.8399 32.4565 28.4999 32.4565Z" fill="white"/>
<path d="M28.4999 30.4565C27.2399 30.4565 26.2499 29.4422 26.2499 28.2613H22.2499C22.2499 31.7001 25.0799 34.4565 28.4999 34.4565V30.4565ZM26.2499 28.2613V27.7678H22.2499V28.2613H26.2499ZM26.2499 27.7678C26.2499 28.492 25.6699 29.0275 24.9999 29.0275V25.0275C23.5099 25.0275 22.2499 26.2341 22.2499 27.7678H26.2499ZM24.9999 29.0275C24.3299 29.0275 23.7499 28.492 23.7499 27.7678H27.7499C27.7499 26.2341 26.4899 25.0275 24.9999 25.0275V29.0275ZM23.7499 27.7678V28.2613H27.7499V27.7678H23.7499ZM23.7499 28.2613C23.7499 30.8907 25.8999 32.9759 28.4999 32.9759V28.9759C28.0599 28.9759 27.7499 28.6328 27.7499 28.2613H23.7499ZM28.4999 32.9759C31.0999 32.9759 33.2499 30.8907 33.2499 28.2613H29.2499C29.2499 28.6328 28.9399 28.9759 28.4999 28.9759V32.9759ZM33.2499 28.2613C33.2499 25.632 31.0999 23.5468 28.4999 23.5468V27.5468C28.9399 27.5468 29.2499 27.8899 29.2499 28.2613H33.2499ZM28.4999 23.5468H11.9999V27.5468H28.4999V23.5468ZM11.9999 23.5468C12.6699 23.5468 13.2499 24.0822 13.2499 24.8065H9.24988C9.24988 26.3402 10.5099 27.5468 11.9999 27.5468V23.5468ZM13.2499 24.8065C13.2499 25.5307 12.6699 26.0662 11.9999 26.0662V22.0662C10.5099 22.0662 9.24988 23.2728 9.24988 24.8065H13.2499ZM11.9999 26.0662H28.4999V22.0662H11.9999V26.0662ZM28.4999 26.0662C29.7599 26.0662 30.7499 27.0805 30.7499 28.2613H34.7499C34.7499 24.8226 31.9199 22.0662 28.4999 22.0662V26.0662ZM30.7499 28.2613C30.7499 29.4422 29.7599 30.4565 28.4999 30.4565V34.4565C31.9199 34.4565 34.7499 31.7001 34.7499 28.2613H30.7499Z" fill="white" mask="url(#path-2-inside-1_203_1333)"/>
<g opacity="0.4">
<mask id="path-4-inside-2_203_1333" fill="white">
<path d="M28.4999 22.5855H11.9999C11.5899 22.5855 11.2499 22.2499 11.2499 21.8452C11.2499 21.4405 11.5899 21.1049 11.9999 21.1049H28.4999C30.0199 21.1049 31.2499 19.8907 31.2499 18.3903C31.2499 16.8899 30.0199 15.6758 28.4999 15.6758C26.9799 15.6758 25.7499 16.8899 25.7499 18.3903V18.8839C25.7499 19.2886 25.4099 19.6242 24.9999 19.6242C24.5899 19.6242 24.2499 19.2886 24.2499 18.8839V18.3903C24.2499 16.0805 26.1599 14.1952 28.4999 14.1952C30.8399 14.1952 32.7499 16.0805 32.7499 18.3903C32.7499 20.7002 30.8399 22.5855 28.4999 22.5855Z"/>
</mask>
<path d="M28.4999 22.5855H11.9999C11.5899 22.5855 11.2499 22.2499 11.2499 21.8452C11.2499 21.4405 11.5899 21.1049 11.9999 21.1049H28.4999C30.0199 21.1049 31.2499 19.8907 31.2499 18.3903C31.2499 16.8899 30.0199 15.6758 28.4999 15.6758C26.9799 15.6758 25.7499 16.8899 25.7499 18.3903V18.8839C25.7499 19.2886 25.4099 19.6242 24.9999 19.6242C24.5899 19.6242 24.2499 19.2886 24.2499 18.8839V18.3903C24.2499 16.0805 26.1599 14.1952 28.4999 14.1952C30.8399 14.1952 32.7499 16.0805 32.7499 18.3903C32.7499 20.7002 30.8399 22.5855 28.4999 22.5855Z" fill="white"/>
<path d="M28.4999 20.5855H11.9999V24.5855H28.4999V20.5855ZM11.9999 20.5855C12.6699 20.5855 13.2499 21.1209 13.2499 21.8452H9.24988C9.24988 23.3789 10.5099 24.5855 11.9999 24.5855V20.5855ZM13.2499 21.8452C13.2499 22.5695 12.6699 23.1049 11.9999 23.1049V19.1049C10.5099 19.1049 9.24988 20.3115 9.24988 21.8452H13.2499ZM11.9999 23.1049H28.4999V19.1049H11.9999V23.1049ZM28.4999 23.1049C31.0999 23.1049 33.2499 21.0197 33.2499 18.3903H29.2499C29.2499 18.7618 28.9399 19.1049 28.4999 19.1049V23.1049ZM33.2499 18.3903C33.2499 15.761 31.0999 13.6758 28.4999 13.6758V17.6758C28.9399 17.6758 29.2499 18.0189 29.2499 18.3903H33.2499ZM28.4999 13.6758C25.8999 13.6758 23.7499 15.761 23.7499 18.3903H27.7499C27.7499 18.0189 28.0599 17.6758 28.4999 17.6758V13.6758ZM23.7499 18.3903V18.8839H27.7499V18.3903H23.7499ZM23.7499 18.8839C23.7499 18.1596 24.3299 17.6242 24.9999 17.6242V21.6242C26.4899 21.6242 27.7499 20.4176 27.7499 18.8839H23.7499ZM24.9999 17.6242C25.6699 17.6242 26.2499 18.1596 26.2499 18.8839H22.2499C22.2499 20.4176 23.5099 21.6242 24.9999 21.6242V17.6242ZM26.2499 18.8839V18.3903H22.2499V18.8839H26.2499ZM26.2499 18.3903C26.2499 17.2095 27.2399 16.1952 28.4999 16.1952V12.1952C25.0799 12.1952 22.2499 14.9516 22.2499 18.3903H26.2499ZM28.4999 16.1952C29.7599 16.1952 30.7499 17.2095 30.7499 18.3903H34.7499C34.7499 14.9516 31.9199 12.1952 28.4999 12.1952V16.1952ZM30.7499 18.3903C30.7499 19.5712 29.7599 20.5855 28.4999 20.5855V24.5855C31.9199 24.5855 34.7499 21.8291 34.7499 18.3903H30.7499Z" fill="white" mask="url(#path-4-inside-2_203_1333)"/>
</g>
<path d="M19.3099 19.6242H11.9999C11.5899 19.6242 11.2499 19.2886 11.2499 18.8839C11.2499 18.4792 11.5899 18.1436 11.9999 18.1436H19.3099C20.3799 18.1436 21.2499 17.2848 21.2499 16.2286C21.2499 15.1724 20.3799 14.3136 19.3099 14.3136C18.2399 14.3136 17.3699 15.1724 17.3699 16.2286V16.6037C17.3699 17.0084 17.0299 17.344 16.6199 17.344C16.2099 17.344 15.8699 17.0183 15.8699 16.6037V16.2286C15.8699 14.3531 17.4099 12.8329 19.3099 12.8329C21.2099 12.8329 22.7499 14.3531 22.7499 16.2286C22.7499 18.1041 21.2099 19.6242 19.3099 19.6242Z" fill="white"/>
</svg>
